<?xml version="1.0" encoding="UTF-8"?>
<svg version="1.1" xmlns="http://www.w3.org/2000/svg" width="500" height="500">
<path d="M0 0 C26.54094077 -2.35121 26.54094077 -2.35121 33.27246094 1.19824219 C36.68207984 4.43584428 38.37182164 8.53573203 40.08056641 12.85009766 C41.59605717 16.3937545 43.77910715 19.44717978 45.9375 22.625 C46.87049959 24.06296058 47.79997972 25.50320875 48.7265625 26.9453125 C59.55864892 43.69448577 70.5343812 60.35110015 81.5809021 76.95947266 C82.56538522 78.43993865 83.54913466 79.92089281 84.53213501 81.40234375 C85.90575791 83.47165065 87.28247283 85.53886371 88.66015625 87.60546875 C89.0707428 88.22491867 89.48132935 88.84436859 89.90435791 89.48258972 C92.78664376 93.94001117 92.78664376 93.94001117 97 97 C97.01030746 95.8496376 97.02061493 94.69927521 97.03123474 93.51405334 C97.12879084 82.69794341 97.23150756 71.8818933 97.33933926 61.06588078 C97.39461529 55.50463451 97.44804263 49.94338304 97.49731445 44.38208008 C97.54488915 39.0198791 97.59722918 33.65774427 97.65294075 28.29562187 C97.67339565 26.24501622 97.69210342 24.19439241 97.70907402 22.14375496 C97.73304888 19.2820488 97.7631125 16.42046893 97.79467773 13.55883789 C97.8004332 12.70216522 97.80618866 11.84549255 97.81211853 10.96286011 C97.88594784 5.11405216 97.88594784 5.11405216 99 4 C101.37201547 3.87513046 103.71640343 3.81399948 106.09008789 3.79467773 C106.83150528 3.78477814 107.57292267 3.77487854 108.33680725 3.76467896 C110.79872393 3.73297534 113.26065993 3.70827174 115.72265625 3.68359375 C117.42517105 3.66303186 119.12768065 3.6420356 120.83018494 3.62062073 C125.31987309 3.56532101 129.80960792 3.51594672 134.29937744 3.46777344 C138.87736178 3.41761594 143.45527803 3.36189992 148.03320312 3.30664062 C157.0220773 3.19896249 166.0110105 3.09753912 175 3 C174.67 2.01 174.34 1.02 174 0 C180.27 0 186.54 0 193 0 C192.67 0.99 192.34 1.98 192 3 C192.969375 3.14695313 193.93875 3.29390625 194.9375 3.4453125 C210.36618734 5.95393156 223.38059011 10.53045861 236 20 C237.5778125 21.11375 237.5778125 21.11375 239.1875 22.25 C253.87612034 36.61220656 261.87525117 55.92177851 262.24169922 76.34082031 C262.31186857 95.12144061 257.88893131 112.06262476 246 127 C245.12601562 128.13695312 245.12601562 128.13695312 244.234375 129.296875 C235.69720861 139.69930463 224.71204668 145.95887377 212 150 C210.59427734 150.46019531 210.59427734 150.46019531 209.16015625 150.9296875 C202.48272473 152.94153918 195.94265316 153.6073724 189 154 C187.1697227 168.60442809 186.82659801 183.0729752 186.875 197.76953125 C186.87788025 198.69641628 186.8807605 199.62330132 186.88372803 200.57827377 C186.90831501 207.32311755 186.95250594 214.06778461 187 220.8125 C187.04735994 227.63177365 187.08789424 234.45096199 187.11187744 241.27036095 C187.12481904 243.9816201 187.14979069 246.69259695 187.17529297 249.40376282 C187.18254941 251.04757443 187.18925393 252.69138861 187.1953125 254.33520508 C187.20564514 255.08669327 187.21597778 255.83818146 187.22662354 256.61244202 C187.22699365 258.40988273 187.12290852 260.2067664 187 262 C185 264 185 264 182.5859375 264.39453125 C180 264 180 264 178.2265625 262.19921875 C177.69804687 261.37035156 177.16953125 260.54148437 176.625 259.6875 C176.02300781 258.76453125 175.42101562 257.8415625 174.80078125 256.890625 C174.20652344 255.93671875 173.61226563 254.9828125 173 254 C164.91480808 241.14354667 156.08513805 228.86516844 147.1875 216.5625 C145.12445933 213.70872353 143.06202564 210.85450994 141 208 C140.5875 207.43007324 140.175 206.86014648 139.75 206.27294922 C138.72418653 204.85221538 137.7054581 203.42637275 136.6875 202 C136.15511719 201.2575 135.62273437 200.515 135.07421875 199.75 C134 198 134 198 134 196 C133.34 196 132.68 196 132 196 C132 216.79 132 237.58 132 259 C126.575625 259.020625 121.15125 259.04125 115.5625 259.0625 C113.84877197 259.071604 112.13504395 259.08070801 110.36938477 259.09008789 C109.01839273 259.09300716 107.66739981 259.09555569 106.31640625 259.09765625 C105.60899292 259.10277222 104.90157959 259.10788818 104.17272949 259.11315918 C102.44807383 259.11347032 100.72353162 259.06225761 99 259 C97.4165007 257.4165007 97.87203458 255.8098758 97.86869812 253.61242676 C97.86268585 252.19105408 97.86268585 252.19105408 97.85655212 250.7409668 C97.8573452 249.16859253 97.8573452 249.16859253 97.8581543 247.56445312 C97.85467987 246.46685669 97.85120544 245.36926025 97.84762573 244.23840332 C97.84025153 241.84461478 97.83491507 239.45081932 97.83133507 237.05702209 C97.82418898 233.26545628 97.80853445 229.47402136 97.78999329 225.68249512 C97.73744974 214.89837051 97.68914583 204.11432658 97.67407227 193.33007812 C97.66476793 186.74115278 97.63460597 180.15251673 97.59275246 173.56370544 C97.5804532 171.0536088 97.57531922 168.54346624 97.57755089 166.03334045 C97.57991005 162.51211085 97.55768646 158.99180737 97.5300293 155.47070312 C97.53663071 154.43864746 97.54323212 153.4065918 97.55003357 152.34326172 C97.43341395 143.26878615 94.5068061 136.77790326 89.375 129.375 C88.66730469 128.34117187 87.95960938 127.30734375 87.23046875 126.2421875 C86.49441406 125.17226563 85.75835937 124.10234375 85 123 C83.94314588 121.41173336 82.88645291 119.82335389 81.83398438 118.23217773 C75.62337847 108.84881978 69.2806168 99.55387474 62.9519043 90.25 C58.52573978 83.74025628 54.1333217 77.20997072 49.7734375 70.65551758 C47.48421434 67.22767061 45.15674186 63.82785572 42.8125 60.4375 C41.87741912 59.08085669 40.94253221 57.72407968 40.0078125 56.3671875 C39.52344727 55.66432617 39.03908203 54.96146484 38.54003906 54.23730469 C35.74953121 50.18337096 32.9680307 46.1232808 30.1875 42.0625 C29.66067627 41.29413818 29.13385254 40.52577637 28.59106445 39.73413086 C27.82475708 38.61470093 27.82475708 38.61470093 27.04296875 37.47265625 C26.5432959 36.74320801 26.04362305 36.01375977 25.52880859 35.26220703 C24.45522544 33.6736057 23.39693657 32.07461264 22.35009766 30.46826172 C21.81819824 29.65244629 21.28629883 28.83663086 20.73828125 27.99609375 C20.02152222 26.8831897 20.02152222 26.8831897 19.2902832 25.74780273 C18.10251122 23.86209916 18.10251122 23.86209916 16 23 C14.89955293 31.89797904 14.8362727 40.7233704 14.83203125 49.671875 C14.82880933 51.28314238 14.82544459 52.89440947 14.82194519 54.50567627 C14.81598682 57.87097857 14.81410187 61.23625531 14.81469727 64.6015625 C14.81479866 68.87546934 14.80115465 73.14920923 14.78392506 77.42307663 C14.77270729 80.74860357 14.77078104 84.0740914 14.77130699 87.39963531 C14.77014123 88.97340723 14.76580028 90.54718064 14.75797462 92.12093353 C14.69249339 106.6489412 16.50340342 120.12512108 20.28125 134.1953125 C20.77026794 136.05490097 20.77026794 136.05490097 21.26916504 137.95205688 C22.15336524 141.31370915 23.04716531 144.67273847 23.94281006 148.03135681 C24.88572537 151.57436445 25.81927912 155.11983791 26.75390625 158.66503906 C28.53966146 165.43287704 30.33355231 172.19852921 32.13093567 178.96328735 C33.60508817 184.51173417 35.07685814 190.06080762 36.546875 195.61035156 C36.86322529 196.80460912 36.86322529 196.80460912 37.18596649 198.02299309 C38.23914372 201.99920899 39.29205932 205.97549412 40.34484863 209.95181274 C40.75658164 211.50677759 41.16832473 213.06173977 41.58007812 214.61669922 C41.78155708 215.37760424 41.98303604 216.13850925 42.19062042 216.922472 C43.38869976 221.44588651 44.58923502 225.96864047 45.79193878 230.49082756 C46.5405443 233.3061969 47.28803111 236.1218626 48.03535461 238.93757248 C48.54800916 240.86732799 49.06225061 242.7966617 49.57653809 244.72598267 C49.88256958 245.87956268 50.18860107 247.0331427 50.50390625 248.22167969 C50.77017822 249.22253601 51.0364502 250.22339233 51.31079102 251.25457764 C51.95419684 253.81754586 52.48176419 256.40882096 53 259 C43.1 259.33 33.2 259.66 23 260 C22.67 260.99 22.34 261.98 22 263 C17.49738777 265.75966556 12.10578303 265.57753939 7 265 C3.875 263.5 3.875 263.5 2 262 C2.28875 261.319375 2.5775 260.63875 2.875 259.9375 C5.83329142 252.2130724 6.46639101 245.08330118 6.53540039 236.91088867 C6.56150217 234.88976473 6.6362383 232.86944791 6.71289062 230.84960938 C6.86441368 215.54578071 2.99757668 204.99030673 -1 189 C-26.08 188.67 -51.16 188.34 -77 188 C-77.495 191.96 -77.495 191.96 -78 196 C-78.48599028 198.23986195 -79.01375823 200.47105575 -79.58227539 202.69140625 C-79.90253189 203.95210937 -80.22278839 205.2128125 -80.55274963 206.51171875 C-80.90094657 207.86200632 -81.24925124 209.21226611 -81.59765625 210.5625 C-81.95537625 211.96343314 -82.31266401 213.36447672 -82.66954041 214.765625 C-83.60394621 218.42943512 -84.54416667 222.09172804 -85.48565674 225.75372314 C-86.61732202 230.16052428 -87.74166679 234.56919822 -88.86725616 238.97755432 C-90.57260419 245.65314465 -92.28716276 252.32630723 -94 259 C-105.55 259 -117.1 259 -129 259 C-128.37538705 254.00309643 -127.83390041 249.84864253 -126.5480957 245.11791992 C-126.25246735 244.0198703 -125.95683899 242.92182068 -125.6522522 241.79049683 C-125.33001678 240.61568756 -125.00778137 239.4408783 -124.67578125 238.23046875 C-124.33791595 236.98202179 -124.00005066 235.73357483 -123.65194702 234.44729614 C-122.73575868 231.06271099 -121.81280152 227.68000645 -120.88845444 224.29764175 C-119.91831939 220.74332854 -118.95437091 217.18733738 -117.98950195 213.6315918 C-115.66875752 205.08524141 -113.33613723 196.54215391 -111 188 C-110.66432007 186.77236938 -110.32864014 185.54473877 -109.98278809 184.27990723 C-106.75664716 172.4858483 -103.51855405 160.69510036 -100.2734375 148.90625 C-96.85065272 136.47185772 -93.45806147 124.02931127 -90.07000732 111.5854187 C-87.43506016 101.90869697 -84.79336742 92.23397268 -82.125 82.56640625 C-81.89041077 81.71634506 -81.65582153 80.86628387 -81.41412354 79.99046326 C-81.18110535 79.14613235 -80.94808716 78.30180145 -80.70800781 77.43188477 C-80.24281591 75.74626276 -79.77764643 74.06063456 -79.3125 72.375 C-78.97309387 71.14509842 -78.97309387 71.14509842 -78.62683105 69.89035034 C-74.99266248 56.71101414 -71.45118058 43.50891742 -67.99145508 30.28271484 C-66.31303285 23.8752061 -64.60334532 17.47749593 -62.80859375 11.1015625 C-62.48560303 9.95252441 -62.1626123 8.80348633 -61.82983398 7.61962891 C-61 5 -61 5 -60 4 C-58.58774954 3.9071274 -57.17091066 3.88253228 -55.75561523 3.88647461 C-54.40432777 3.88658791 -54.40432777 3.88658791 -53.02574158 3.88670349 C-52.04658279 3.89186478 -51.06742401 3.89702606 -50.05859375 3.90234375 C-49.06118668 3.9037587 -48.0637796 3.90517365 -47.03614807 3.90663147 C-43.83656876 3.91224886 -40.63705831 3.92480429 -37.4375 3.9375 C-35.27408955 3.94251276 -33.11067801 3.94707605 -30.94726562 3.95117188 C-25.63148675 3.96222393 -20.31574829 3.97897896 -15 4 C-11.86047529 11.67728865 -9.86368813 19.64777774 -7.76953125 27.65625 C-7.37061645 29.16948836 -6.97133378 30.68262979 -6.57170105 32.19567871 C-5.52743307 36.15333954 -4.48812684 40.11228653 -3.44989014 44.0715332 C-2.38693682 48.12140264 -1.31923858 52.17002052 -0.25195312 56.21875 C1.83664603 64.1446242 3.91999885 72.07186509 6 80 C9.07978853 76.92021147 8.32445254 73.26363736 8.3359375 69.12890625 C8.34422577 68.22725739 8.35251404 67.32560852 8.36105347 66.39663696 C8.38050293 63.45176159 8.38035642 60.50743001 8.375 57.5625 C8.37512085 56.56691071 8.3752417 55.57132141 8.37536621 54.54556274 C8.3541428 42.3232215 8.06193377 30.28931028 6.25 18.1875 C6.09321777 17.13054932 5.93643555 16.07359863 5.77490234 14.98461914 C4.77282184 9.19647533 3.25309653 4.9001475 0 0 Z M132 36 C132 64.71 132 93.42 132 123 C135.21782488 123.80445622 137.36333713 124.1225749 140.58496094 124.11352539 C141.48559265 124.11344986 142.38622437 124.11337433 143.31414795 124.11329651 C144.75966034 124.10555458 144.75966034 124.10555458 146.234375 124.09765625 C147.22753723 124.0962413 148.22069946 124.09482635 149.24395752 124.09336853 C152.41266912 124.08777588 155.58130979 124.0752247 158.75 124.0625 C160.89973856 124.05748405 163.04947823 124.05292131 165.19921875 124.04882812 C170.46616999 124.03780886 175.73307993 124.021078 181 124 C180.89193489 114.42839858 180.77919397 104.85686649 180.66066074 95.28538895 C180.60575042 90.83985891 180.55238564 86.39432205 180.50268555 81.94873047 C180.4545663 77.64982802 180.40221411 73.35099516 180.34705925 69.05217743 C180.32684873 67.42095447 180.30810389 65.78971261 180.29092598 64.1584549 C181.49441161 48.44184446 181.49441161 48.44184446 177 35 C171.56358867 33.0148778 165.24181349 33.81406011 159.52075195 33.81469727 C157.33719991 33.81252458 155.15416497 33.79439012 152.97070312 33.77539062 C151.55989754 33.77245339 150.14908958 33.7704708 148.73828125 33.76953125 C147.47024658 33.76542236 146.20221191 33.76131348 144.89575195 33.75708008 C140.10144929 33.95450374 140.10144929 33.95450374 132 36 Z M189 35 C184.8418333 46.64286675 185.85618279 59.81633277 185.90234375 72.0234375 C185.90421509 73.50558422 185.9056356 74.98773158 185.90663147 76.46987915 C185.91040036 80.31992381 185.9201806 84.1699291 185.93133545 88.0199585 C185.94167253 91.96902942 185.94615509 95.91810687 185.95117188 99.8671875 C185.96180956 107.5781427 185.97881585 115.28906578 186 123 C193.56991528 125.07571804 200.90996373 122.0755179 207.61328125 118.4765625 C217.42979493 112.40349839 223.27209823 104.18808362 226 93 C228.36132652 79.02881808 228.21091766 63.16256968 220 51 C213.49285427 42.68601575 207.56216764 37.22361424 197 35 C194.30714339 34.85777166 191.70013631 34.90525838 189 35 Z M-39 41 C-42.75436943 49.95272709 -45.15390722 59.20539409 -47.4765625 68.61328125 C-47.80659997 69.93875983 -48.13696551 71.26415676 -48.46763611 72.58947754 C-49.34409981 76.10607147 -50.21626794 79.62371596 -51.08726883 83.14166641 C-51.98594059 86.76962577 -52.88744547 90.39688089 -53.78881836 94.02416992 C-54.14879206 95.47279268 -54.50876216 96.92141634 -54.86872864 98.37004089 C-55.04601816 99.08348349 -55.22330769 99.79692608 -55.40596962 100.53198814 C-55.94000433 102.68185627 -56.47347741 104.8318632 -57.00688171 106.98188782 C-59.00642332 115.03685668 -61.03033905 123.08512426 -63.08984375 131.125 C-63.52208456 132.81987706 -63.95421938 134.51478116 -64.38623047 136.2097168 C-64.96711001 138.48827148 -65.55040494 140.76602533 -66.14263916 143.04165649 C-66.66601792 145.05337032 -67.17980021 147.06729761 -67.69140625 149.08203125 C-67.97185791 150.16718018 -68.25230957 151.2523291 -68.54125977 152.37036133 C-69.2312625 155.09714339 -69.2312625 155.09714339 -68 158 C-65.36284904 159.31857548 -63.4016736 159.11991704 -60.44873047 159.11352539 C-59.28767792 159.11344986 -58.12662537 159.11337433 -56.9303894 159.11329651 C-55.04285446 159.10555458 -55.04285446 159.10555458 -53.1171875 159.09765625 C-51.83264679 159.0962413 -50.54810608 159.09482635 -49.22463989 159.09336853 C-45.80843158 159.08954911 -42.39226574 159.07972373 -38.97607422 159.06866455 C-35.49056574 159.05843807 -32.0050504 159.05386826 -28.51953125 159.04882812 C-21.67967005 159.03810096 -14.83983706 159.02103142 -8 159 C-8.58486357 152.71974162 -9.61778559 146.80454456 -11.16137695 140.69506836 C-11.37942993 139.81237274 -11.59748291 138.92967712 -11.82214355 138.02023315 C-12.53870595 135.12537769 -13.26342694 132.23263303 -13.98828125 129.33984375 C-14.49343729 127.30607863 -14.99808244 125.27218655 -15.50224304 123.23817444 C-16.82884909 117.89195395 -18.16240575 112.54749113 -19.49743652 107.20336914 C-20.84302077 101.81176201 -22.18195526 96.41850467 -23.52148438 91.02539062 C-27.66606913 74.34653496 -31.82959858 57.67241711 -36 41 C-36.99 41 -37.98 41 -39 41 Z M8 89 C9 91 9 91 9 91 Z M136 154 C136.64621007 158.44598637 137.56314517 161.22376007 140 165 C140.94544848 166.99625485 141.88205046 168.99671023 142.8125 171 C147.30280796 180.23940895 153.20282953 188.56179212 158.98095703 197.02783203 C162.65088634 202.43021648 166.25816287 207.8745047 169.875 213.3125 C171.24714369 215.37126183 172.61951701 217.42987063 173.9921875 219.48828125 C174.99479167 220.9921875 175.99739583 222.49609375 177 224 C177.99 223.67 178.98 223.34 180 223 C181.09363916 216.92528352 181.06015454 211.07276873 180.9140625 204.9140625 C180.88220352 203.32952774 180.88220352 203.32952774 180.84970093 201.71298218 C180.8035947 199.48567944 180.75468017 197.25843327 180.703125 195.03125 C180.62542068 191.64334159 180.55812024 188.25534322 180.4921875 184.8671875 C180.44593364 182.69529918 180.39907836 180.52342357 180.3515625 178.3515625 C180.33171295 177.34815826 180.3118634 176.34475403 180.29141235 175.3109436 C180.22432946 172.53838799 180.12521355 169.77050186 180 167 C179.948367 165.73020294 179.948367 165.73020294 179.89569092 164.43475342 C179.6476984 160.89343478 179.3226958 158.54424815 177.49511719 155.46191406 C173.73480173 153.25870771 170.35882515 153.50320941 166.078125 153.609375 C164.78814606 153.61786469 164.78814606 153.61786469 163.47210693 153.62652588 C160.73083351 153.64888049 157.99087696 153.69907398 155.25 153.75 C153.38934182 153.77006624 151.52866311 153.78831679 149.66796875 153.8046875 C145.11147334 153.84874216 140.55595978 153.91776246 136 154 Z M178 224 C179 226 179 226 179 226 Z " fill="#000002" transform="translate(198,146)"/>
<path d="M0 0 C0.79719955 0.00222061 1.59439911 0.00444122 2.41575623 0.00672913 C3.76704369 0.00684242 3.76704369 0.00684242 5.14562988 0.00695801 C6.12478867 0.01211929 7.10394745 0.01728058 8.11277771 0.02259827 C9.11018478 0.02401321 10.10759186 0.02542816 11.13522339 0.02688599 C14.3348027 0.03250337 17.53431315 0.04505881 20.73387146 0.05775452 C22.89728191 0.06276728 25.06069345 0.06733057 27.22410583 0.07142639 C32.53988471 0.08247845 37.85562317 0.09923348 43.17137146 0.12025452 C46.35533246 7.90996121 48.39607859 15.99900278 50.55027771 24.11634827 C50.96688716 25.67527045 51.38379817 27.23411207 51.80099487 28.7928772 C52.671645 32.0492149 53.53962349 35.30624843 54.40550232 38.56385803 C55.50983413 42.71826848 56.61933513 46.8712756 57.73066807 51.02381802 C58.59100027 54.23977723 59.44931986 57.45627078 60.30697441 60.67294502 C60.71516726 62.20351366 61.12379522 63.73396632 61.5328846 65.26429558 C62.10643414 67.41165954 62.67745348 69.55968107 63.24778748 71.707901 C63.5718306 72.92509323 63.89587372 74.14228546 64.22973633 75.3963623 C64.54047592 76.62524673 64.85121552 77.85413116 65.17137146 79.12025452 C65.44658945 80.11832548 65.44658945 80.11832548 65.7273674 81.13655949 C67.40294943 87.69973804 67.44041487 94.05392852 67.39842224 100.80018616 C67.39871429 102.04020386 67.39900635 103.28022156 67.39930725 104.55781555 C67.3981591 107.93123996 67.38818308 111.30441446 67.37415934 114.67779469 C67.36159012 118.21316737 67.36047663 121.74854397 67.35810852 125.28393555 C67.35191184 131.96666053 67.33552576 138.64931946 67.31540954 145.33201545 C67.29299388 152.94512924 67.28204291 160.55824632 67.27201867 168.17138493 C67.25115776 183.82104627 67.21601733 199.47064185 67.17137146 215.12025452 C66.51137146 215.12025452 65.85137146 215.12025452 65.17137146 215.12025452 C64.39847496 212.37082033 63.62803575 209.62073311 62.85887146 206.87025452 C62.64553162 206.11228577 62.43219177 205.35431702 62.21238708 204.57337952 C60.40845813 198.11154447 58.80045332 191.63658195 57.17137146 185.12025452 C32.09137146 184.79025452 7.01137146 184.46025452 -18.82862854 184.12025452 C-19.32362854 188.08025452 -19.32362854 188.08025452 -19.82862854 192.12025452 C-20.31461882 194.36011647 -20.84238677 196.59131027 -21.41090393 198.81166077 C-21.73116043 200.07236389 -22.05141693 201.33306702 -22.38137817 202.63197327 C-22.72957511 203.98226083 -23.07787978 205.33252062 -23.42628479 206.68275452 C-23.78400479 208.08368766 -24.14129255 209.48473123 -24.49816895 210.88587952 C-25.43257475 214.54968964 -26.37279521 218.21198256 -27.31428528 221.87397766 C-28.44595056 226.28077879 -29.57029533 230.68945273 -30.6958847 235.09780884 C-32.40123273 241.77339917 -34.1157913 248.44656174 -35.82862854 255.12025452 C-47.37862854 255.12025452 -58.92862854 255.12025452 -70.82862854 255.12025452 C-70.20401559 250.12335095 -69.66252895 245.96889705 -68.37672424 241.23817444 C-68.08109589 240.14012482 -67.78546753 239.0420752 -67.48088074 237.91075134 C-67.15864532 236.73594208 -66.83640991 235.56113281 -66.50440979 234.35072327 C-66.16654449 233.10227631 -65.8286792 231.85382935 -65.48057556 230.56755066 C-64.56438722 227.1829655 -63.64143006 223.80026096 -62.71708298 220.41789627 C-61.74694793 216.86358306 -60.78299945 213.30759189 -59.81813049 209.75184631 C-57.49738606 201.20549593 -55.16476577 192.66240843 -52.82862854 184.12025452 C-52.49294861 182.8926239 -52.15726868 181.66499329 -51.81141663 180.40016174 C-48.5852757 168.60610281 -45.34718259 156.81535488 -42.10206604 145.02650452 C-38.67928126 132.59211224 -35.28669001 120.14956578 -31.89863586 107.70567322 C-29.2636887 98.02895149 -26.62199596 88.35422719 -23.95362854 78.68666077 C-23.71903931 77.83659958 -23.48445007 76.98653839 -23.24275208 76.11071777 C-23.00973389 75.26638687 -22.7767157 74.42205597 -22.53663635 73.55213928 C-22.07144445 71.86651727 -21.60627497 70.18088908 -21.14112854 68.49525452 C-20.80172241 67.26535294 -20.80172241 67.26535294 -20.45545959 66.01060486 C-16.82129102 52.83126866 -13.27980912 39.62917193 -9.82008362 26.40296936 C-8.14166139 19.99546062 -6.43197386 13.59775044 -4.63722229 7.22181702 C-4.31423157 6.07277893 -3.99124084 4.92374084 -3.65846252 3.73988342 C-2.52638876 0.16614072 -2.52638876 0.16614072 0 0 Z M19.17137146 37.12025452 C15.41700203 46.07298161 13.01746424 55.32564861 10.69480896 64.73353577 C10.36477149 66.05901435 10.03440595 67.38441128 9.70373535 68.70973206 C8.82727165 72.22632599 7.95510352 75.74397047 7.08410263 79.26192093 C6.18543087 82.88988029 5.28392599 86.51713541 4.3825531 90.14442444 C4.0225794 91.5930472 3.6626093 93.04167085 3.30264282 94.49029541 C3.1253533 95.203738 2.94806377 95.9171806 2.76540184 96.65224266 C2.23136713 98.80211079 1.69789405 100.95211772 1.16448975 103.10214233 C-0.83505186 111.15711119 -2.85896759 119.20537878 -4.91847229 127.24525452 C-5.3507131 128.94013158 -5.78284792 130.63503568 -6.21485901 132.32997131 C-6.79573855 134.608526 -7.37903348 136.88627984 -7.9712677 139.16191101 C-8.49464646 141.17362484 -9.00842875 143.18755212 -9.52003479 145.20228577 C-9.80048645 146.28743469 -10.08093811 147.37258362 -10.36988831 148.49061584 C-11.05989104 151.21739791 -11.05989104 151.21739791 -9.82862854 154.12025452 C-7.19147758 155.43883 -5.23030214 155.24017156 -2.27735901 155.23377991 C-1.11630646 155.23370438 0.04474609 155.23362885 1.24098206 155.23355103 C3.128517 155.2258091 3.128517 155.2258091 5.05418396 155.21791077 C6.33872467 155.21649582 7.62326538 155.21508087 8.94673157 155.21362305 C12.36293988 155.20980363 15.77910572 155.19997825 19.19529724 155.18891907 C22.68080572 155.17869259 26.16632106 155.17412277 29.65184021 155.16908264 C36.49170141 155.15835547 43.3315344 155.14128594 50.17137146 155.12025452 C49.58650789 148.83999614 48.55358587 142.92479907 47.00999451 136.81532288 C46.79194153 135.93262726 46.57388855 135.04993164 46.34922791 134.14048767 C45.63266551 131.24563221 44.90794452 128.35288755 44.18309021 125.46009827 C43.67793417 123.42633315 43.17328902 121.39244107 42.66912842 119.35842896 C41.34252237 114.01220847 40.00896571 108.66774565 38.67393494 103.32362366 C37.32835069 97.93201653 35.9894162 92.53875919 34.64988708 87.14564514 C30.50530233 70.46678947 26.34177288 53.79267163 22.17137146 37.12025452 C21.18137146 37.12025452 20.19137146 37.12025452 19.17137146 37.12025452 Z " fill="#233CE4" transform="translate(139.82862854003906,149.87974548339844)"/>
<path d="M0 0 C0.75610565 -0.0065712 1.5122113 -0.0131424 2.29122925 -0.01991272 C4.80369148 -0.03969038 7.31609385 -0.05131764 9.82861328 -0.0612793 C10.68449162 -0.06535482 11.54036995 -0.06943035 12.42218399 -0.07362938 C16.95137544 -0.09450837 21.48053641 -0.1088026 26.00976562 -0.11816406 C30.69656831 -0.12923749 35.38289736 -0.16364261 40.06953239 -0.20333576 C43.66570948 -0.22943571 47.26177256 -0.23784993 50.85803604 -0.24144554 C52.5860629 -0.24632805 54.31408411 -0.25798909 56.04201889 -0.27648354 C58.45808575 -0.30073723 60.87291212 -0.29993592 63.2890625 -0.29296875 C64.00606323 -0.30577881 64.72306396 -0.31858887 65.46179199 -0.33178711 C68.7166242 -0.29749038 70.33542539 -0.25740901 72.69969177 2.08480835 C75.41632125 7.37575499 75.02744242 12.91587834 75.08642578 18.73950195 C75.12993164 20.17712891 75.12993164 20.17712891 75.17431641 21.64379883 C75.18269531 22.56354492 75.19107422 23.48329102 75.19970703 24.4309082 C75.21428955 25.26952393 75.22887207 26.10813965 75.24389648 26.97216797 C74.77392578 29.17700195 74.77392578 29.17700195 72.99731445 31.03613281 C70.23930098 32.45132958 69.66056619 32.09324264 66.77392578 31.17700195 C64.41730577 31.08314093 62.05819454 31.04629672 59.69970703 31.04418945 C59.01643845 31.04323273 58.33316986 31.042276 57.62919617 31.04129028 C56.18435575 31.0406111 54.73951225 31.04244713 53.29467773 31.04663086 C51.11125602 31.05194156 48.9280439 31.04669848 46.74462891 31.0402832 C45.33382117 31.04094483 43.92301356 31.04222775 42.51220703 31.04418945 C40.61015503 31.04588135 40.61015503 31.04588135 38.66967773 31.04760742 C34.35701825 31.19084923 30.06257153 31.70048576 25.77392578 32.17700195 C25.77392578 60.88700195 25.77392578 89.59700195 25.77392578 119.17700195 C50.02892578 119.67200195 50.02892578 119.67200195 74.77392578 120.17700195 C74.77392578 129.74700195 74.77392578 139.31700195 74.77392578 149.17700195 C72.42296048 150.3524846 71.00830416 150.30978967 68.38769531 150.32226562 C67.47980255 150.32864548 66.57190979 150.33502533 65.63650513 150.34159851 C64.16152054 150.34326775 64.16152054 150.34326775 62.65673828 150.3449707 C61.6480368 150.3482991 60.63933533 150.3516275 59.60006714 150.35505676 C57.46320045 150.36012601 55.32632582 150.36246509 53.18945312 150.36230469 C49.91930071 150.36448835 46.64948708 150.38263641 43.37939453 150.40161133 C41.30517694 150.4045458 39.23095774 150.40653023 37.15673828 150.4074707 C35.68782639 150.41824898 35.68782639 150.41824898 34.1892395 150.429245 C32.81794388 150.42463005 32.81794388 150.42463005 31.41894531 150.41992188 C30.61667511 150.42134689 29.81440491 150.42277191 28.98782349 150.42424011 C26.47022866 150.14308642 24.91379983 149.52226161 22.77392578 148.17700195 C21.16877558 146.07818677 19.74397866 144.02661084 18.33642578 141.80200195 C17.91321045 141.15005859 17.48999512 140.49811523 17.05395508 139.82641602 C16.12399632 138.39210968 15.19816664 136.95512009 14.27587891 135.51586914 C12.68815917 133.04344471 11.08441357 130.5820099 9.47705078 128.12231445 C6.71202289 123.88932405 3.96091888 119.64754684 1.21582031 115.40161133 C-0.04075719 113.46291607 -1.30504445 111.52965673 -2.57373047 109.59887695 C-3.20150391 108.6346582 -3.82927734 107.67043945 -4.47607422 106.67700195 C-4.99685547 105.88293945 -5.51763672 105.08887695 -6.05419922 104.27075195 C-7.93332278 100.91338453 -8.351035 97.83134468 -8.35305786 94.0202179 C-8.35587769 93.19999146 -8.35869751 92.37976501 -8.36160278 91.53468323 C-8.35856644 90.19807899 -8.35856644 90.19807899 -8.35546875 88.83447266 C-8.35722107 87.8893985 -8.35897339 86.94432434 -8.36077881 85.97061157 C-8.36517899 82.84798342 -8.36226647 79.72541192 -8.35888672 76.6027832 C-8.35956011 74.43613168 -8.36053044 72.26948024 -8.36178589 70.10282898 C-8.36326023 65.56431356 -8.3611161 61.02581782 -8.35644531 56.48730469 C-8.35073798 50.65604499 -8.35403504 44.82483121 -8.36001778 38.99357319 C-8.36362178 34.52163849 -8.36248572 30.04971479 -8.35988998 25.57777977 C-8.3592208 23.42667828 -8.36004885 21.27557582 -8.36236954 19.12447548 C-8.36489453 16.12673907 -8.36105812 13.12907839 -8.35546875 10.13134766 C-8.35749298 9.23420547 -8.35951721 8.33706329 -8.36160278 7.41273499 C-8.33456241 -0.37160777 -7.20438516 0.02686626 0 0 Z " fill="#243CE2" transform="translate(304.22607421875,149.822998046875)"/>
<path d="M0 0 C19.30512779 0.99332872 37.12291288 8.76481225 50.3671875 23.0546875 C50.89828125 23.580625 51.429375 24.1065625 51.9765625 24.6484375 C66.01983102 39.31308958 69.86846933 59.81035198 69.578125 79.38671875 C69.04199641 95.52683685 63.40896004 110.43810148 53.3671875 123.0546875 C52.78453125 123.81265625 52.201875 124.570625 51.6015625 125.3515625 C43.0602876 135.7589983 32.08044876 142.00303335 19.3671875 146.0546875 C18.45324219 146.36148438 17.53929687 146.66828125 16.59765625 146.984375 C9.33962172 149.21598152 1.95492732 150.01193967 -5.6328125 150.0546875 C-6.6328125 149.0546875 -6.6328125 149.0546875 -6.74633789 146.27905273 C-6.74110107 145.06934814 -6.73586426 143.85964355 -6.73046875 142.61328125 C-6.72724609 141.30810547 -6.72402344 140.00292969 -6.72070312 138.65820312 C-6.71234651 137.2695306 -6.70388155 135.88085873 -6.6953125 134.4921875 C-6.69029916 133.09961094 -6.68573597 131.70703269 -6.68164062 130.31445312 C-6.66980684 126.8944888 -6.6533213 123.47460906 -6.6328125 120.0546875 C-5.685271 119.86495361 -4.73772949 119.67521973 -3.76147461 119.47973633 C-2.51116455 119.22216553 -1.26085449 118.96459473 0.02734375 118.69921875 C1.26363525 118.44760986 2.49992676 118.19600098 3.77368164 117.93676758 C13.31994583 115.59349341 21.61846358 110.46579835 27.1171875 102.2421875 C34.26210359 89.92660845 35.31505086 74.31238492 32.1171875 60.6171875 C29.19297155 50.53740163 24.07088873 41.23116978 14.8046875 35.6171875 C8.74707616 32.8637278 3.86928891 31.81271477 -2.71484375 32.27734375 C-3.34777344 32.20386719 -3.98070312 32.13039062 -4.6328125 32.0546875 C-7.51575999 27.73026626 -6.96265948 23.89082181 -6.9453125 18.8046875 C-6.96142578 17.87527344 -6.97753906 16.94585937 -6.99414062 15.98828125 C-6.99821632 10.22524205 -6.35568139 6.15575833 -3.6328125 1.0546875 C-2.6328125 0.0546875 -2.6328125 0.0546875 0 0 Z " fill="#233BE3" transform="translate(390.6328125,149.9453125)"/>
<path d="M0 0 C3.83462657 3.59750302 6.78255644 7.38300599 9.625 11.8125 C10.49626249 13.14527283 11.36870092 14.47727751 12.2421875 15.80859375 C12.91652832 16.83895752 12.91652832 16.83895752 13.60449219 17.89013672 C15.93809085 21.4182962 18.34487183 24.89538905 20.75 28.375 C21.66945866 29.71080824 22.58873593 31.04674135 23.5078125 32.3828125 C24.9978942 34.54764818 26.49257273 36.70891839 27.9921875 38.8671875 C28.53101563 39.65351563 29.06984375 40.43984375 29.625 41.25 C30.07101562 41.89453125 30.51703125 42.5390625 30.9765625 43.203125 C33.27156809 47.23252413 33.12184631 51.22822035 33.11352539 55.78808594 C33.11367142 56.46166641 33.11381744 57.13524689 33.1139679 57.82923889 C33.11327324 60.04765076 33.10550181 62.26597786 33.09765625 64.484375 C33.09579048 66.02565464 33.09436733 67.56693488 33.09336853 69.10821533 C33.08955585 73.15897263 33.07973624 77.20969391 33.06866455 81.26043701 C33.05842356 85.39627597 33.05386515 89.53212076 33.04882812 93.66796875 C33.03811284 101.77866234 33.02105143 109.88932668 33 118 C28.31860746 118.02465288 23.63725241 118.04283739 18.95581055 118.05493164 C17.36205386 118.05997157 15.76830181 118.0668035 14.17456055 118.07543945 C11.88849747 118.08751999 9.60249533 118.09323155 7.31640625 118.09765625 C6.59973282 118.10281754 5.88305939 118.10797882 5.14466858 118.11329651 C3.42936328 118.11349263 1.71418734 118.06192007 0 118 C-1.60311035 116.39688965 -1.12600268 114.70256544 -1.12698364 112.48266602 C-1.13121338 111.01870895 -1.13121338 111.01870895 -1.13552856 109.525177 C-1.13350433 108.44565765 -1.1314801 107.36613831 -1.12939453 106.25390625 C-1.13114685 105.12395233 -1.13289917 103.99399841 -1.13470459 102.82980347 C-1.13912582 99.07402027 -1.13618416 95.31828372 -1.1328125 91.5625 C-1.13348546 88.96557608 -1.13445542 86.36865222 -1.13571167 83.77172852 C-1.13718901 78.32079411 -1.13512751 72.86987742 -1.13037109 67.41894531 C-1.1249285 61.10860771 -1.12669117 54.79830241 -1.1321975 48.48796558 C-1.13727431 42.428323 -1.13674709 36.36869628 -1.13381577 30.30905151 C-1.13314623 27.72533158 -1.13397585 25.14161083 -1.13629532 22.55789185 C-1.13882025 18.95393657 -1.1349835 15.3500443 -1.12939453 11.74609375 C-1.13141876 10.6665744 -1.13344299 9.58705505 -1.13552856 8.474823 C-1.13270874 7.49885162 -1.12988892 6.52288025 -1.12698364 5.51733398 C-1.12660662 4.66413071 -1.12622959 3.81092743 -1.12584114 2.93186951 C-1 1 -1 1 0 0 Z " fill="#243CE1" transform="translate(297,287)"/>
<path d="M0 0 C2.80502028 2.62471616 3.65639825 4.47647674 4.61547852 8.22827148 C4.89815079 9.31234787 5.18082306 10.39642426 5.47206116 11.51335144 C5.77132004 12.7039064 6.07057892 13.89446136 6.37890625 15.12109375 C6.87729216 17.04846479 7.37568074 18.97583515 7.87416744 20.90318012 C8.40854608 22.97748411 8.93780109 25.05303487 9.46557617 27.12902832 C10.56793334 31.46459884 11.68380499 35.79661039 12.80273438 40.12792969 C13.18705268 41.61599462 13.57136044 43.10406227 13.95565796 44.59213257 C14.14842693 45.33848339 14.34119591 46.08483421 14.53980637 46.85380173 C15.13471727 49.159238 15.72823222 51.46502993 16.32144165 53.77090454 C19.19906281 64.9492016 22.12877588 76.11306359 25.08984375 87.26953125 C25.29710146 88.05058668 25.50435917 88.83164211 25.71789742 89.63636589 C27.34409152 95.76318857 28.97297897 101.88929423 30.60258865 108.0152092 C31.74823519 112.3220701 32.8927321 116.62923259 34.03541756 120.93688011 C34.5479173 122.86695649 35.06219412 124.79656072 35.57652283 126.72615051 C35.88255936 127.87967514 36.18859589 129.03319977 36.50390625 130.22167969 C36.77017822 131.22253601 37.0364502 132.22339233 37.31079102 133.25457764 C37.95624646 135.82571041 38.50512961 138.39613465 39 141 C34.35586181 141.21712953 29.71147389 141.4139689 25.06567383 141.59204102 C23.48536197 141.65547413 21.90526245 141.7244491 20.32543945 141.79907227 C18.05452988 141.90537623 15.78360256 141.99172961 13.51171875 142.07421875 C12.45219246 142.1302552 12.45219246 142.1302552 11.3712616 142.18742371 C6.47222685 142.33761102 6.47222685 142.33761102 4.39352131 140.85147381 C-1.09098832 133.56459138 -0.42343769 121.65009983 -0.34057617 112.95776367 C-0.34101425 111.72691544 -0.34145233 110.4960672 -0.34190369 109.22792053 C-0.34018898 105.89799097 -0.32529067 102.56864046 -0.30418181 99.23881316 C-0.28524848 95.74217849 -0.28365161 92.24553362 -0.28010559 88.74885559 C-0.27083349 82.1476796 -0.24628631 75.54665517 -0.21605712 68.94554549 C-0.18236119 61.42182946 -0.16598918 53.89810566 -0.15097082 46.37433279 C-0.11973155 30.91613452 -0.06706674 15.45808691 0 0 Z " fill="#233CE2" transform="translate(212,264)"/>
<path d="M0 0 C1.67128932 2.94381488 2.27731759 5.17383394 2.4140625 8.546875 C2.45273438 9.39121094 2.49140625 10.23554688 2.53125 11.10546875 C2.5621875 11.97816406 2.593125 12.85085937 2.625 13.75 C2.66367188 14.63816406 2.70234375 15.52632812 2.7421875 16.44140625 C2.83620873 18.6273998 2.92186143 20.81339062 3 23 C3.33 20.69 3.66 18.38 4 16 C6.68092691 18.68092691 6.38670257 20.39167363 6.625 24.125 C6.69976562 25.22070312 6.77453125 26.31640625 6.8515625 27.4453125 C6.90054688 28.28835938 6.94953125 29.13140625 7 30 C6.67 30 6.34 30 6 30 C5.92964095 46.03889308 5.876881 62.07773542 5.84456348 78.11674595 C5.82915311 85.56543222 5.80817645 93.01402211 5.77368164 100.46264648 C5.74359929 106.96161611 5.72438274 113.46051586 5.71773452 119.95955318 C5.71385382 123.39464316 5.70485855 126.82953341 5.68280983 130.26455879 C4.63670925 150.51829984 4.63670925 150.51829984 9 170 C11.50261494 171.42826488 11.50261494 171.42826488 14 172 C11.45215479 174.79049714 9.54916968 175.86346301 5.6953125 176.203125 C0.61781677 176.29572371 -2.85513006 176.31589596 -7 173 C-6.71125 172.319375 -6.4225 171.63875 -6.125 170.9375 C-3.88129554 165.07893835 -2.74228033 159.81492641 -2.5859375 153.53515625 C-2.56657135 152.85698349 -2.5472052 152.17881073 -2.5272522 151.48008728 C-2.46808001 149.34101434 -2.42132481 147.20188572 -2.375 145.0625 C-2.33676255 143.60088964 -2.29770758 142.13930043 -2.2578125 140.67773438 C-2.16243181 137.11868457 -2.07817433 133.55947413 -2 130 C-1.34 130 -0.68 130 0 130 C-0.00607553 129.34216585 -0.01215105 128.6843317 -0.01841068 128.00656319 C-0.16574063 112.01650349 -0.30748111 96.02640558 -0.4429636 80.03624153 C-0.50861676 72.30359339 -0.57617722 64.57097062 -0.64819336 56.83837891 C-0.71094142 50.10041393 -0.77014597 43.36242884 -0.82505554 36.62439525 C-0.85426742 33.05507962 -0.88528065 29.48579974 -0.92053413 25.91653824 C-0.95977612 21.93674793 -0.99110848 17.95691725 -1.02172852 13.97705078 C-1.03467453 12.7873468 -1.04762054 11.59764282 -1.06095886 10.37188721 C-1.06799835 9.29212616 -1.07503784 8.21236511 -1.08229065 7.09988403 C-1.09058679 6.1578116 -1.09888292 5.21573917 -1.10743046 4.24511909 C-1 2 -1 2 0 0 Z " fill="#000016" transform="translate(207,235)"/>
<path d="M0 0 C0.33 0 0.66 0 1 0 C1.33 1.65 1.66 3.3 2 5 C2.66 3.68 3.32 2.36 4 1 C4.33 1 4.66 1 5 1 C5.0501123 1.89831543 5.10022461 2.79663086 5.15185547 3.72216797 C5.34199608 7.05113776 5.54046327 10.37939202 5.74462891 13.70751953 C5.8313157 15.14872799 5.9146671 16.59014107 5.99462891 18.03173828 C6.11006798 20.10251568 6.23743803 22.17226368 6.3671875 24.2421875 C6.44050293 25.4885498 6.51381836 26.73491211 6.58935547 28.01904297 C6.70970441 31.11236751 6.70970441 31.11236751 9 33 C9 33.99 9 34.98 9 36 C9.66 36 10.32 36 11 36 C11 36.66 11 37.32 11 38 C12.65 38.66 14.3 39.32 16 40 C13.45215479 42.79049714 11.54916968 43.86346301 7.6953125 44.203125 C2.61781677 44.29572371 -0.85513006 44.31589596 -5 41 C-4.566875 39.9790625 -4.566875 39.9790625 -4.125 38.9375 C-1.94443591 33.24380489 -0.74867671 28.07537658 -0.5859375 21.97265625 C-0.52792969 20.04389648 -0.52792969 20.04389648 -0.46875 18.07617188 C-0.43730501 16.73828582 -0.40605741 15.40039511 -0.375 14.0625 C-0.33675658 12.69724244 -0.2977013 11.33200736 -0.2578125 9.96679688 C-0.16390063 6.6446646 -0.07822213 3.32253259 0 0 Z " fill="#000103" transform="translate(205,367)"/>
<path d="M0 0 C1.90051047 3.2195845 2.24785625 5.5847372 2.24050903 9.3024292 C2.24325836 10.37652542 2.24600769 11.45062164 2.24884033 12.55726624 C2.2380545 14.31701027 2.2380545 14.31701027 2.22705078 16.11230469 C2.22734283 17.35159225 2.22763489 18.59087982 2.22793579 19.86772156 C2.22678149 23.26210007 2.21675359 26.65623507 2.20278788 30.05057049 C2.19028225 33.59931915 2.18911015 37.14807108 2.18673706 40.69683838 C2.18052179 47.41514543 2.16411036 54.13338736 2.14403808 60.85166574 C2.12168053 68.50093873 2.11068601 76.15021485 2.10064721 83.79951239 C2.07974416 99.53304597 2.04456729 115.26651458 2 131 C1.34 131 0.68 131 0 131 C-0.7728965 128.25056581 -1.54333571 125.50047859 -2.3125 122.75 C-2.52583984 121.99203125 -2.73917969 121.2340625 -2.95898438 120.453125 C-4.76291333 113.99128995 -6.37091814 107.51632744 -8 101 C-33.08 100.67 -58.16 100.34 -84 100 C-84 99.67 -84 99.34 -84 99 C-58.26 98.67 -32.52 98.34 -6 98 C-5.34 102.29 -4.68 106.58 -4 111 C-3.34 111 -2.68 111 -2 111 C-1.67 112.32 -1.34 113.64 -1 115 C-0.05947344 101.32900549 0.1332291 87.72339615 0.09765625 74.0234375 C0.09578578 71.87440016 0.09436486 69.72536239 0.09336853 67.57632446 C0.08959281 61.98371149 0.07980619 56.39112545 0.06866455 50.79852295 C0.05834268 45.0662065 0.05384808 39.33388561 0.04882812 33.6015625 C0.03817829 22.40102998 0.02116311 11.20051725 0 0 Z " fill="#2A3DBD" transform="translate(205,234)"/>
<path d="M0 0 C0.66 0 1.32 0 2 0 C2.33 0.66 2.66 1.32 3 2 C3.66 1.67 4.32 1.34 5 1 C5.33 10.57 5.66 20.14 6 30 C6.66 30.33 7.32 30.66 8 31 C7.34 32.98 6.68 34.96 6 37 C5.67 36.34 5.34 35.68 5 35 C4.01 34.67 3.02 34.34 2 34 C1.34 36.31 0.68 38.62 0 41 C-2 38 -2 38 -3 35.4375 C-3.86842753 32.87436838 -3.86842753 32.87436838 -6 31 C-4.02 30.67 -2.04 30.34 0 30 C0 20.1 0 10.2 0 0 Z " fill="#000016" transform="translate(379,269)"/>
<path d="M0 0 C3.01748688 2.77817424 3.74860711 4.91864102 4.6875 8.9375 C4.93886719 9.97777344 5.19023437 11.01804687 5.44921875 12.08984375 C6 15 6 15 6 19 C5.01 18.67 4.02 18.34 3 18 C2.67 16.35 2.34 14.7 2 13 C1.97658147 27.43027536 1.95904359 41.86054774 1.94818783 56.29083824 C1.94304383 62.99191345 1.93591136 69.69297507 1.92456055 76.39404297 C1.91366857 82.86497752 1.9077098 89.33589979 1.90512276 95.8068428 C1.90327987 98.27148253 1.89968122 100.7361216 1.89426994 103.20075607 C1.88697575 106.66168402 1.88601259 110.12256166 1.88647461 113.58349609 C1.88287933 114.59482605 1.87928406 115.60615601 1.87557983 116.64813232 C1.88445916 122.82404283 2.26270479 128.86795358 3 135 C-0.04443009 130.43335487 -0.12562579 125.87703825 -0.12025452 120.49502563 C-0.12162918 119.42659424 -0.12300385 118.35816284 -0.12442017 117.25735474 C-0.12082489 116.10073334 -0.11722961 114.94411194 -0.11352539 113.75244141 C-0.11367142 112.52261536 -0.11381744 111.29278931 -0.1139679 110.0256958 C-0.11339202 106.66662978 -0.10838852 103.30762578 -0.10139394 99.94857073 C-0.09512816 96.43319412 -0.09455405 92.91781663 -0.09336853 89.4024353 C-0.09026471 82.75150854 -0.08206413 76.10059828 -0.07201904 69.44967878 C-0.06082841 61.87532087 -0.05534002 54.30096215 -0.05032361 46.72659802 C-0.03988071 31.1510558 -0.02229968 15.57553003 0 0 Z " fill="#273CC3" transform="translate(212,264)"/>
<path d="M0 0 C0.66 0 1.32 0 2 0 C2.33 1.65 2.66 3.3 3 5 C2.67 5 2.34 5 2 5 C1.95320147 21.14252986 1.91797276 37.28503759 1.89637566 53.42761898 C1.88607954 60.92353018 1.87205116 68.41939913 1.84912109 75.9152832 C1.82913611 82.45155049 1.81627147 88.98778716 1.81182301 95.52408415 C1.80922425 98.98240771 1.80315104 102.44064373 1.78853989 105.89893913 C1.77233045 109.76719634 1.77202358 113.63536928 1.77294922 117.50366211 C1.76575867 118.64014694 1.75856812 119.77663177 1.75115967 120.94755554 C1.76572509 126.58517282 2.10009852 131.64785332 3.6681385 137.07994938 C4.05700334 139.32980414 3.6866666 140.84295653 3 143 C0.39045054 139.22908875 -0.37323413 136.72810396 -0.36076355 132.15971375 C-0.36488754 130.99168716 -0.36901154 129.82366058 -0.3732605 128.62023926 C-0.35708176 126.71160095 -0.35708176 126.71160095 -0.34057617 124.7644043 C-0.33972949 123.40407836 -0.34020585 122.04375105 -0.34190369 120.6834259 C-0.34276347 116.99776851 -0.32514073 113.31240478 -0.30418181 109.62681556 C-0.28541203 105.77245054 -0.28366434 101.91807859 -0.28010559 98.06367493 C-0.270786 90.76808734 -0.24617342 83.47263482 -0.21605712 76.17710668 C-0.18251041 67.87003364 -0.16602643 59.5629541 -0.15097082 51.25583017 C-0.11962375 34.17047536 -0.06686497 17.08525197 0 0 Z " fill="#161E66" transform="translate(211,260)"/>
<path d="M0 0 C0.33 0 0.66 0 1 0 C1.04667382 17.0457278 1.08196613 34.09143572 1.10362434 51.13721275 C1.1139469 59.05145781 1.12802586 66.96566321 1.15087891 74.87988281 C1.17078289 81.77609076 1.18370931 88.67227001 1.18817699 95.56850588 C1.19078946 99.22166473 1.19695007 102.87474142 1.21146011 106.52787399 C1.2275084 110.60113962 1.22798162 114.67426148 1.22705078 118.74755859 C1.23424133 119.96531479 1.24143188 121.18307098 1.24884033 122.43772888 C1.246091 123.54273239 1.24334167 124.6477359 1.24050903 125.78622437 C1.24235262 126.75041983 1.24419621 127.71461529 1.24609566 128.70802879 C1 131 1 131 -1 133 C-1.33 130.03 -1.66 127.06 -2 124 C-1.34 124 -0.68 124 0 124 C0 83.08 0 42.16 0 0 Z " fill="#041264" transform="translate(207,241)"/>
<path d="M0 0 C0.99 0 1.98 0 3 0 C1.90841447 2.26713917 0.74896492 4.41169752 -0.5625 6.5625 C-2.62088817 10.05281038 -3.12738106 12.69880255 -3.1328125 16.67578125 C-3.13410156 17.58650391 -3.13539063 18.49722656 -3.13671875 19.43554688 C-3.13285156 20.38494141 -3.12898438 21.33433594 -3.125 22.3125 C-3.12886719 23.25029297 -3.13273437 24.18808594 -3.13671875 25.15429688 C-3.13005518 29.88209905 -2.98111446 34.35138627 -2 39 C-2.99 38.67 -3.98 38.34 -5 38 C-5 36.02 -5 34.04 -5 32 C-5.66 32 -6.32 32 -7 32 C-7.99 34.475 -7.99 34.475 -9 37 C-9.99 37 -10.98 37 -12 37 C-11.67854004 36.4337793 -11.35708008 35.86755859 -11.02587891 35.28417969 C-9.92710244 32.83768931 -9.69398432 31.11827998 -9.5859375 28.453125 C-9.54726563 27.60878906 -9.50859375 26.76445312 -9.46875 25.89453125 C-9.4378125 25.02183594 -9.406875 24.14914063 -9.375 23.25 C-9.33632813 22.36183594 -9.29765625 21.47367188 -9.2578125 20.55859375 C-9.16379127 18.3726002 -9.07813857 16.18660938 -9 14 C-8.34 14 -7.68 14 -7 14 C-6.67 15.32 -6.34 16.64 -6 18 C-5.86722656 17.33613281 -5.73445313 16.67226562 -5.59765625 15.98828125 C-4.73177083 11.65885417 -3.86588542 7.32942708 -3 3 C-2.01 3 -1.02 3 0 3 C0 2.01 0 1.02 0 0 Z " fill="#00011C" transform="translate(388,146)"/>
<path d="M0 0 C1.32 0 2.64 0 4 0 C5 5 5 5 6 10 C6.185625 10.845625 6.37125 11.69125 6.5625 12.5625 C7.19476867 16.08513976 7.06058771 19.42532512 7 23 C5.47700477 20.06279492 4.19899698 17.0831351 3 14 C-0.34243648 15.89404734 -0.97997149 16.94091591 -2.25 20.6875 C-2.4975 21.780625 -2.745 22.87375 -3 24 C-3.66 23.67 -4.32 23.34 -5 23 C-4.91231752 21.4156683 -4.80412671 19.83246433 -4.6875 18.25 C-4.62949219 17.36828125 -4.57148438 16.4865625 -4.51171875 15.578125 C-3.92822885 12.63840489 -2.79220593 11.35227028 -1 9 C-0.43310718 6.65147774 -0.43310718 6.65147774 -0.3125 4.25 C-0.24675781 3.45078125 -0.18101562 2.6515625 -0.11328125 1.828125 C-0.07589844 1.22484375 -0.03851563 0.6215625 0 0 Z " fill="#1D37CB" transform="translate(158,176)"/>
<path d="M0 0 C0.33 0 0.66 0 1 0 C1.02322795 11.56183126 1.04096823 23.12365692 1.05181217 34.68550682 C1.05701819 40.05483198 1.0640742 45.4241411 1.07543945 50.79345703 C1.08634966 55.9805886 1.09229401 61.16770479 1.09487724 66.35484695 C1.09671688 68.32825589 1.10030911 70.30166403 1.10573006 72.27506638 C1.11304859 75.05107148 1.11398642 77.82701406 1.11352539 80.60302734 C1.11712067 81.40864105 1.12071594 82.21425476 1.12442017 83.04428101 C1.11425501 88.7457021 0.65479334 94.33764313 0 100 C-0.33 100 -0.66 100 -1 100 C-1.66 96.37 -2.32 92.74 -3 89 C-2.01 88.505 -2.01 88.505 -1 88 C-0.67 58.96 -0.34 29.92 0 0 Z " fill="#2839D6" transform="translate(205,241)"/>
<path d="M0 0 C3.83462282 3.5974995 6.78262854 7.38291371 9.625 11.8125 C10.48843419 13.13356428 11.35306356 14.45384801 12.21875 15.7734375 C12.66734375 16.45889648 13.1159375 17.14435547 13.578125 17.85058594 C16.04495855 21.57963858 18.58529051 25.25785899 21.125 28.9375 C21.61049316 29.64173096 22.09598633 30.34596191 22.59619141 31.0715332 C23.72985833 32.71500148 24.86478195 34.35760278 26 36 C25.01 36.495 25.01 36.495 24 37 C23.34 36.01 22.68 35.02 22 34 C20.515 33.505 20.515 33.505 19 33 C18.05078125 30.93359375 18.05078125 30.93359375 17.3125 28.4375 C17.06113281 27.61121094 16.80976563 26.78492188 16.55078125 25.93359375 C16.36902344 25.29550781 16.18726563 24.65742188 16 24 C15.01 24 14.02 24 13 24 C12.87625 22.576875 12.87625 22.576875 12.75 21.125 C12.35476069 17.90618118 12.35476069 17.90618118 10 16.6875 C9.34 16.460625 8.68 16.23375 8 16 C7 15 7 15 6.9375 12.4375 C6.958125 11.633125 6.97875 10.82875 7 10 C6.01 9.67 5.02 9.34 4 9 C3.01 7.35 2.02 5.7 1 4 C0.67 9.28 0.34 14.56 0 20 C-0.33 20 -0.66 20 -1 20 C-1.02888514 16.85418577 -1.04675923 13.70840531 -1.0625 10.5625 C-1.07087891 9.66466797 -1.07925781 8.76683594 -1.08789062 7.84179688 C-1.09111328 6.98779297 -1.09433594 6.13378906 -1.09765625 5.25390625 C-1.10551147 4.06776733 -1.10551147 4.06776733 -1.11352539 2.85766602 C-1 1 -1 1 0 0 Z " fill="#2738B6" transform="translate(297,287)"/>
<path d="M0 0 C0.33 0 0.66 0 1 0 C1.3621318 6.03553002 0.82781178 9.57060138 -2 15 C-2.36028205 17.35384272 -2.55800755 19.66995272 -2.69140625 22.046875 C-3 24 -3 24 -5 26 C-5.6837613 28.88717605 -5.6837613 28.88717605 -6.125 32.125 C-6.29257813 33.22070312 -6.46015625 34.31640625 -6.6328125 35.4453125 C-6.75398438 36.28835937 -6.87515625 37.13140625 -7 38 C-7.66 38 -8.32 38 -9 38 C-8.95875 39.010625 -8.9175 40.02125 -8.875 41.0625 C-9.00573843 45.18076052 -9.73250786 48.11830533 -11 52 C-11.99 51.67 -12.98 51.34 -14 51 C-9.38 34.17 -4.76 17.34 0 0 Z " fill="#2C3EBF" transform="translate(124,199)"/>
<path d="M0 0 C0 0.66 0 1.32 0 2 C-1.37294222 2.34171006 -2.74850118 2.67291117 -4.125 3 C-5.27355469 3.2784375 -5.27355469 3.2784375 -6.4453125 3.5625 C-9 4 -9 4 -15 4 C-15 12.91 -15 21.82 -15 31 C-13.68 30.67 -12.36 30.34 -11 30 C-8.5842094 29.93168013 -6.16665287 29.91512358 -3.75 29.9375 C-1.85507812 29.95103516 -1.85507812 29.95103516 0.078125 29.96484375 C1.04234375 29.97644531 2.0065625 29.98804688 3 30 C-0.6319625 32.24138744 -3.97772083 32.42138961 -8.1875 32.6875 C-9.43917969 32.77386719 -10.69085938 32.86023438 -11.98046875 32.94921875 C-12.97691406 32.96597656 -13.97335937 32.98273438 -15 33 C-16 32 -16 32 -16.11352539 29.22436523 C-16.10828857 28.01466064 -16.10305176 26.80495605 -16.09765625 25.55859375 C-16.09443359 24.25341797 -16.09121094 22.94824219 -16.08789062 21.60351562 C-16.07953401 20.2148431 -16.07106905 18.82617123 -16.0625 17.4375 C-16.05748666 16.04492344 -16.05292347 14.65234519 -16.04882812 13.25976562 C-16.03699434 9.8398013 -16.0205088 6.41992156 -16 3 C-13.70887834 2.49750857 -11.41708499 1.99807883 -9.125 1.5 C-7.84882813 1.2215625 -6.57265625 0.943125 -5.2578125 0.65625 C-2 0 -2 0 0 0 Z " fill="#263BB6" transform="translate(400,267)"/>
<path d="M0 0 C0.33 0 0.66 0 1 0 C1.25 7.625 1.25 7.625 -1 11 C-1.66 13.97 -2.32 16.94 -3 20 C12.84 20.495 12.84 20.495 29 21 C29 21.33 29 21.66 29 22 C17.78 22 6.56 22 -5 22 C-4.29620948 16.36967584 -3.52516303 11.82635339 -1.9375 6.5 C-1.57527344 5.2728125 -1.21304688 4.045625 -0.83984375 2.78125 C-0.56269531 1.8634375 -0.28554687 0.945625 0 0 Z " fill="#2D41B4" transform="translate(74,383)"/>
<path d="M0 0 C2.89818759 5.30499522 4.11789592 11.19969956 5.6875 17 C6.02072266 18.18851563 6.35394531 19.37703125 6.69726562 20.6015625 C7.00728516 21.74367187 7.31730469 22.88578125 7.63671875 24.0625 C7.92248779 25.10535156 8.20825684 26.14820313 8.50268555 27.22265625 C8.98976547 29.94284339 8.9224703 31.43232296 8 34 C8 33.01 8 32.02 8 31 C5.525 30.01 5.525 30.01 3 29 C3.20496094 27.99839844 3.40992188 26.99679688 3.62109375 25.96484375 C4.04026584 21.57866161 3.37664112 18.74385811 2.0625 14.5625 C1.68222656 13.32628906 1.30195313 12.09007812 0.91015625 10.81640625 C0.60980469 9.88699219 0.30945313 8.95757812 0 8 C-0.66 8 -1.32 8 -2 8 C-1.34 5.36 -0.68 2.72 0 0 Z " fill="#2E3CBF" transform="translate(192,184)"/>
<path d="M0 0 C2.10867486 3.70405779 3.117116 7.66857925 4.19921875 11.7578125 C4.39852493 12.50207489 4.59783112 13.24633728 4.80317688 14.01315308 C5.22138368 15.58092222 5.6372866 17.14930753 6.05102539 18.71826172 C6.6876883 21.12571203 7.33661661 23.52963662 7.98632812 25.93359375 C8.3913746 27.45813437 8.79569682 28.98286764 9.19921875 30.5078125 C9.39496994 31.22865021 9.59072113 31.94948792 9.79240417 32.69216919 C11.11454621 37.77090757 11.11454621 37.77090757 10 40 C9.505 38.515 9.505 38.515 9 37 C8.34 37 7.68 37 7 37 C6.93941406 36.36191406 6.87882813 35.72382813 6.81640625 35.06640625 C6.69072266 33.82697266 6.69072266 33.82697266 6.5625 32.5625 C6.48128906 31.73878906 6.40007812 30.91507812 6.31640625 30.06640625 C6.21069185 28.01337975 6.21069185 28.01337975 5 27 C4.20243778 23.51807123 3.51622966 20.01840605 2.81640625 16.515625 C2.11713872 13.08709363 2.11713872 13.08709363 0.91015625 10.31640625 C-0.47705414 6.78586651 -0.12763599 3.76526185 0 0 Z " fill="#2A41C1" transform="translate(230,328)"/>
<path d="M0 0 C0.33 0 0.66 0 1 0 C0.39496146 5.6555181 -0.62185703 11.00213991 -2.0625 16.5 C-2.24876953 17.22703125 -2.43503906 17.9540625 -2.62695312 18.703125 C-3.08026455 20.46987724 -3.5395002 22.23510775 -4 24 C-4.33 24 -4.66 24 -5 24 C-4.67 19.38 -4.34 14.76 -4 10 C-5.32 10.99 -6.64 11.98 -8 13 C-8 10.69 -8 8.38 -8 6 C-7.34 6 -6.68 6 -6 6 C-5.34 5.01 -4.68 4.02 -4 3 C-3.01 3 -2.02 3 -1 3 C-0.67 2.01 -0.34 1.02 0 0 Z " fill="#2237C8" transform="translate(144,237)"/>
<path d="M0 0 C1.37520651 3.82001808 0.74051523 7.07526927 0 11 C-0.33 11.33 -0.66 11.66 -1 12 C-1.36760731 14.32817964 -1.70241581 16.6618385 -2 19 C-2.66 19 -3.32 19 -4 19 C-4.103125 20.051875 -4.20625 21.10375 -4.3125 22.1875 C-5.05194266 28.22265699 -6.56959796 34.09846705 -8 40 C-8.66 40 -9.32 40 -10 40 C-9.38736664 35.1623623 -8.45549978 30.56638216 -7.1875 25.859375 C-7.01371826 25.21051331 -6.83993652 24.56165161 -6.66088867 23.89312744 C-6.11106456 21.84437219 -5.55552132 19.79721682 -5 17.75 C-4.62725019 16.36207418 -4.25485128 14.97405408 -3.8828125 13.5859375 C-1.1873182 3.5619546 -1.1873182 3.5619546 0 0 Z " fill="#2C3EBE" transform="translate(87,335)"/>
<path d="M0 0 C0.33 0 0.66 0 1 0 C1 12.87 1 25.74 1 39 C0.01 39.495 0.01 39.495 -1 40 C-1.19335938 39.44570313 -1.38671875 38.89140625 -1.5859375 38.3203125 C-1.84632813 37.59585938 -2.10671875 36.87140625 -2.375 36.125 C-2.63023437 35.40570313 -2.88546875 34.68640625 -3.1484375 33.9453125 C-3.93877783 31.81842006 -3.93877783 31.81842006 -6 30 C-4.02 29.67 -2.04 29.34 0 29 C0 19.43 0 9.86 0 0 Z " fill="#071052" transform="translate(379,270)"/>
<path d="M0 0 C2.29371595 0.03813083 4.58633147 0.15570982 6.875 0.3125 C8.75832031 0.43044922 8.75832031 0.43044922 10.6796875 0.55078125 C14 1 14 1 17 3 C15.95199219 2.98839844 14.90398437 2.97679687 13.82421875 2.96484375 C12.44531428 2.95546345 11.06640789 2.9463635 9.6875 2.9375 C8.99720703 2.92912109 8.30691406 2.92074219 7.59570312 2.91210938 C4.4516975 2.89692094 2.00579981 2.99806673 -1 4 C-0.67 5.98 -0.34 7.96 0 10 C-0.66 10 -1.32 10 -2 10 C-2.33 13.63 -2.66 17.26 -3 21 C-3.33 21 -3.66 21 -4 21 C-4.55779487 7.26171897 -4.55779487 7.26171897 -1 1 C-0.67 0.67 -0.34 0.34 0 0 Z " fill="#293BB9" transform="translate(388,150)"/>
<path d="M0 0 C0.66 0 1.32 0 2 0 C2.33 2.31 2.66 4.62 3 7 C0.55033941 6.41208146 -1.79254042 5.73581986 -4.1875 4.9375 C-8.57803824 3.85785945 -12.5110826 3.81677888 -17 4 C-17.33 3.01 -17.66 2.02 -18 1 C-16.10448978 0.94558344 -14.2085208 0.90701965 -12.3125 0.875 C-11.25675781 0.85179687 -10.20101563 0.82859375 -9.11328125 0.8046875 C-5.97748141 1.00141271 -3.82354627 1.66942346 -1 3 C-0.67 2.01 -0.34 1.02 0 0 Z " fill="#273BD7" transform="translate(403,178)"/>
<path d="M0 0 C1.22459951 3.54406735 0.76444587 5.936784 -0.14453125 9.53515625 C-0.40943359 10.59154297 -0.67433594 11.64792969 -0.94726562 12.73632812 C-1.23279297 13.83396484 -1.51832031 14.93160156 -1.8125 16.0625 C-2.08642578 17.16400391 -2.36035156 18.26550781 -2.64257812 19.40039062 C-4.73004202 27.59506303 -4.73004202 27.59506303 -7 31 C-7.30480173 25.41196835 -6.64638005 21.35438591 -4.73828125 16.109375 C-3.3240223 12.06863514 -2.6400121 9.0799637 -4 5 C-3.01 4.34 -2.02 3.68 -1 3 C-0.67 2.01 -0.34 1.02 0 0 Z " fill="#2439BF" transform="translate(152,205)"/>
<path d="M0 0 C0.8971875 0.5259375 0.8971875 0.5259375 1.8125 1.0625 C1.8125 1.7225 1.8125 2.3825 1.8125 3.0625 C-0.4975 3.3925 -2.8075 3.7225 -5.1875 4.0625 C-5.1875 6.7025 -5.1875 9.3425 -5.1875 12.0625 C-5.8475 12.0625 -6.5075 12.0625 -7.1875 12.0625 C-7.1875 14.3725 -7.1875 16.6825 -7.1875 19.0625 C-7.8475 19.0625 -8.5075 19.0625 -9.1875 19.0625 C-9.5175 20.0525 -9.8475 21.0425 -10.1875 22.0625 C-9.58720545 14.55881811 -7.94646875 7.0740861 -5.1875 0.0625 C-2.1875 -0.9375 -2.1875 -0.9375 0 0 Z " fill="#2A3CCC" transform="translate(102.1875,297.9375)"/>
<path d="M0 0 C1.11475495 3.34426486 0.87077674 4.34848905 0.00390625 7.66796875 C-0.22490234 8.56064453 -0.45371094 9.45332031 -0.68945312 10.37304688 C-0.93630859 11.30181641 -1.18316406 12.23058594 -1.4375 13.1875 C-1.68048828 14.12787109 -1.92347656 15.06824219 -2.17382812 16.03710938 C-2.77520947 18.36009221 -3.38418746 20.68080883 -4 23 C-4.33 23 -4.66 23 -5 23 C-5.08333357 18.1666528 -4.95261487 13.76307437 -4 9 C-5.32 8.34 -6.64 7.68 -8 7 C-7.67 6.34 -7.34 5.68 -7 5 C-6.38125 4.87625 -5.7625 4.7525 -5.125 4.625 C-2.32606997 3.80178529 -1.54719585 2.39815356 0 0 Z " fill="#2238C4" transform="translate(136,270)"/>
<path d="M0 0 C1.74959319 2.62438979 2.62068453 3.96547627 3 7 C1 10 1 10 -0.5 11.25 C-2.72614687 13.84717135 -3.19691443 16.72588191 -4 20 C-4.66 19.67 -5.32 19.34 -6 19 C-5.91231752 17.4156683 -5.80412671 15.83246433 -5.6875 14.25 C-5.60048828 12.92742187 -5.60048828 12.92742187 -5.51171875 11.578125 C-4.92970571 8.64584554 -4.04364902 7.1597081 -2 5 C-1.34 5 -0.68 5 0 5 C0 3.35 0 1.7 0 0 Z " fill="#1331B7" transform="translate(159,180)"/>
<path d="M0 0 C0.66 0 1.32 0 2 0 C1.354523 7.90709331 -0.86997139 15.39133967 -3 23 C-3.33 23 -3.66 23 -4 23 C-4 19.33333333 -4 15.66666667 -4 12 C-4.33 12 -4.66 12 -5 12 C-5 10.35 -5 8.7 -5 7 C-3.68 6.67 -2.36 6.34 -1 6 C-0.67 4.02 -0.34 2.04 0 0 Z " fill="#223AC2" transform="translate(119,334)"/>
<path d="M0 0 C12.87 0 25.74 0 39 0 C38.01 0.99 37.02 1.98 36 3 C34.27441406 2.70727539 34.27441406 2.70727539 32 2 C29.5300062 1.85047043 27.08138327 1.74440998 24.609375 1.68359375 C23.90476135 1.66281265 23.20014771 1.64203156 22.47418213 1.62062073 C20.23288319 1.55546163 17.99147136 1.49639752 15.75 1.4375 C14.22655103 1.39428274 12.70311329 1.35066743 11.1796875 1.30664062 C7.45324409 1.19981509 3.72667506 1.09845361 0 1 C0 0.67 0 0.34 0 0 Z " fill="#253EC0" transform="translate(339,179)"/>
<path d="M0 0 C2.67179249 4.77105802 4 9.53911054 4 15 C0.125 13.125 0.125 13.125 -1 12 C-1.26865672 3.80597015 -1.26865672 3.80597015 0 0 Z " fill="#2440D2" transform="translate(243,377)"/>
<path d="M0 0 C2.05710856 3.08566284 2.78346093 5.36985312 3.6875 8.9375 C3.95949219 9.97777344 4.23148438 11.01804687 4.51171875 12.08984375 C4.97828785 14.8705956 4.93894816 16.38480882 4 19 C4 18.01 4 17.02 4 16 C3.34 16 2.68 16 2 16 C1.67 16.99 1.34 17.98 1 19 C0.01 18.67 -0.98 18.34 -2 18 C-1.34 17.67 -0.68 17.34 0 17 C1.62824645 11.37514862 0.66140616 5.71861938 0 0 Z " fill="#2A3FC6" transform="translate(218,283)"/>
<path d="M0 0 C0.66 0 1.32 0 2 0 C1.67 2.64 1.34 5.28 1 8 C-6.92 7.67 -14.84 7.34 -23 7 C-23 6.67 -23 6.34 -23 6 C-16.4 6 -9.8 6 -3 6 C-3 5.34 -3 4.68 -3 4 C-2.01 4 -1.02 4 0 4 C0 2.68 0 1.36 0 0 Z " fill="#253ACF" transform="translate(103,397)"/>
<path d="M0 0 C0.66 0 1.32 0 2 0 C0.82255415 3.53233755 0.04394359 3.86308075 -3.0625 5.6875 C-3.79597656 6.12449219 -4.52945312 6.56148438 -5.28515625 7.01171875 C-5.85105469 7.33785156 -6.41695313 7.66398437 -7 8 C-7 7.01 -7 6.02 -7 5 C-8.32 4.34 -9.64 3.68 -11 3 C-10.67 2.34 -10.34 1.68 -10 1 C-8.68 1 -7.36 1 -6 1 C-6 1.66 -6 2.32 -6 3 C-4.02 2.67 -2.04 2.34 0 2 C0 1.34 0 0.68 0 0 Z " fill="#233AD3" transform="translate(435,279)"/>
<path d="M0 0 C0.66 0 1.32 0 2 0 C4.60822485 4.86868639 5.12256203 8.72429326 5.0625 14.25 C5.05347656 15.32765625 5.04445312 16.4053125 5.03515625 17.515625 C5.02355469 18.33546875 5.01195312 19.1553125 5 20 C3.20958752 16.76168874 2.26249761 13.58584892 1.375 10 C1.11460937 8.96875 0.85421875 7.9375 0.5859375 6.875 C0 4 0 4 0 0 Z " fill="#2742C5" transform="translate(185,280)"/>
<path d="M0 0 C0.33 0 0.66 0 1 0 C1.33 9.57 1.66 19.14 2 29 C2.66 29.33 3.32 29.66 4 30 C3.67 30.99 3.34 31.98 3 33 C1.51831055 31.9284668 1.51831055 31.9284668 0 30 C-0.34057617 26.90551758 -0.34057617 26.90551758 -0.29296875 23.14453125 C-0.28872391 22.48289474 -0.28447906 21.82125824 -0.28010559 21.13957214 C-0.26333693 19.0301309 -0.22569099 16.92165154 -0.1875 14.8125 C-0.17245068 13.38087319 -0.1587627 11.94923138 -0.14648438 10.51757812 C-0.1134403 7.01140712 -0.06167167 3.50579746 0 0 Z " fill="#0D1758" transform="translate(383,270)"/>
<path d="M0 0 C1.37344385 4.39844322 0.24307502 7.92504555 -0.9375 12.25 C-1.23043945 13.36761719 -1.23043945 13.36761719 -1.52929688 14.5078125 C-2.01104198 16.34079386 -2.50439225 18.17071818 -3 20 C-3.66 19.34 -4.32 18.68 -5 18 C-4.61716776 12.76795944 -2.72272938 7.91539632 -1 3 C-0.67 2.01 -0.34 1.02 0 0 Z " fill="#2638BA" transform="translate(110,373)"/>
<path d="M0 0 C1.66645757 3.08549348 2.73761596 6.12675325 3.6875 9.5 C3.95949219 10.4384375 4.23148438 11.376875 4.51171875 12.34375 C5.00140894 15.00766466 4.88693174 16.47611372 4 19 C3.34 19 2.68 19 2 19 C1.90912109 18.04287109 1.90912109 18.04287109 1.81640625 17.06640625 C1.73261719 16.24011719 1.64882812 15.41382813 1.5625 14.5625 C1.48128906 13.73878906 1.40007812 12.91507812 1.31640625 12.06640625 C1.21069185 10.01337975 1.21069185 10.01337975 0 9 C-0.07179964 7.48071962 -0.08392007 5.95832518 -0.0625 4.4375 C-0.05347656 3.61121094 -0.04445312 2.78492188 -0.03515625 1.93359375 C-0.02355469 1.29550781 -0.01195312 0.65742188 0 0 Z " fill="#2C3EC7" transform="translate(225,309)"/>
<path d="M0 0 C0.33 0 0.66 0 1 0 C1.33 1.65 1.66 3.3 2 5 C2.33 5 2.66 5 3 5 C3 10.61 3 16.22 3 22 C2.67 22 2.34 22 2 22 C0.71702277 14.58851545 -0.25515919 7.52719602 0 0 Z " fill="#04051C" transform="translate(205,367)"/>
<path d="M0 0 C0.66 0 1.32 0 2 0 C2.33 1.65 2.66 3.3 3 5 C2.67 5 2.34 5 2 5 C1.67 12.59 1.34 20.18 1 28 C0.67 28 0.34 28 0 28 C0 18.76 0 9.52 0 0 Z " fill="#141E6B" transform="translate(211,260)"/>
<path d="M0 0 C1.98 0 3.96 0 6 0 C7.3271261 3.9813783 7.06915913 7.85045227 7 12 C6.773125 11.46375 6.54625 10.9275 6.3125 10.375 C5.13801851 8.24974779 3.95184753 6.69753199 2.375 4.875 C0 2 0 2 0 0 Z " fill="#040212" transform="translate(372,146)"/>
<path d="M0 0 C0.33 0 0.66 0 1 0 C1.22786458 2.01822917 1.45572917 4.03645833 1.68359375 6.0546875 C1.91292961 8.07404316 1.91292961 8.07404316 3 10 C1.60804085 12.7839183 -0.15575779 12.97898997 -3 14 C-2.40380045 9.13103697 -1.43023178 4.67209049 0 0 Z " fill="#283FCA" transform="translate(108,258)"/>
<path d="M0 0 C0.99 0.33 1.98 0.66 3 1 C4.1875 4.0625 4.1875 4.0625 5 7 C4.67 7.33 4.34 7.66 4 8 C3.92851801 9.35243917 3.91600546 10.70834367 3.9375 12.0625 C3.958125 13.361875 3.97875 14.66125 4 16 C1.11388804 11.0523795 0 5.66834163 0 0 Z " fill="#253FC7" transform="translate(169,215)"/>
<path d="M0 0 C1.78596189 2.67894284 2.39169178 4.0031669 3.0703125 7.01171875 C3.33134766 8.14770508 3.33134766 8.14770508 3.59765625 9.30664062 C3.85869141 10.48516602 3.85869141 10.48516602 4.125 11.6875 C4.30675781 12.48478516 4.48851562 13.28207031 4.67578125 14.10351562 C5.12273427 16.06775651 5.56210416 18.03372014 6 20 C5.34 20 4.68 20 4 20 C1.05602409 13.34405447 0.35000997 7.24158565 0 0 Z " fill="#2940BC" transform="translate(186,162)"/>
<path d="M0 0 C0.99 0 1.98 0 3 0 C1.95575284 2.16882102 0.91980357 4.11027009 -0.5 6.0625 C-2.75296161 10.47454981 -3.27546569 15.1328342 -4 20 C-4.33 20 -4.66 20 -5 20 C-5.22084624 13.90218999 -5.01167675 8.78357065 -3 3 C-2.01 3 -1.02 3 0 3 C0 2.01 0 1.02 0 0 Z " fill="#010323" transform="translate(388,146)"/>
<path d="M0 0 C0.33 0.66 0.66 1.32 1 2 C2.64363134 2.72159424 4.31050386 3.39351421 6 4 C4.875 5.5 4.875 5.5 3 7 C-0.1875 7.1875 -0.1875 7.1875 -3 7 C-2.67 6.01 -2.34 5.02 -2 4 C-1.34 4 -0.68 4 0 4 C0 2.68 0 1.36 0 0 Z " fill="#000226" transform="translate(215,403)"/>
<path d="M0 0 C2.34914492 2.34914492 2.73140357 3.95679446 3.625 7.125 C3.88539063 8.03507813 4.14578125 8.94515625 4.4140625 9.8828125 C4.70410156 10.93082031 4.70410156 10.93082031 5 12 C4.34 11.67 3.68 11.34 3 11 C3 10.01 3 9.02 3 8 C1.35 8.33 -0.3 8.66 -2 9 C-1.34 6.03 -0.68 3.06 0 0 Z " fill="#2C3ECF" transform="translate(451,188)"/>
<path d="M0 0 C3.96 0 7.92 0 12 0 C12.33 0.99 12.66 1.98 13 3 C9.04 3 5.08 3 1 3 C0.67 2.01 0.34 1.02 0 0 Z " fill="#243BB5" transform="translate(385,179)"/>
<path d="M0 0 C0.33 0.66 0.66 1.32 1 2 C0.505 2.598125 0.01 3.19625 -0.5 3.8125 C-2.28276418 5.97029994 -2.28276418 5.97029994 -2 9 C-4.97 9.66 -7.94 10.32 -11 11 C-10.29875 10.484375 -9.5975 9.96875 -8.875 9.4375 C-5.50532643 6.58060284 -2.78843396 3.41128003 0 0 Z " fill="#273CC0" transform="translate(417,253)"/>
<path d="M0 0 C2.40575607 2.18517099 3.79535581 4.25919671 5.1875 7.1875 C5.53167969 7.90292969 5.87585938 8.61835938 6.23046875 9.35546875 C6.48441406 9.89816406 6.73835938 10.44085938 7 11 C5.68 10.67 4.36 10.34 3 10 C3 9.34 3 8.68 3 8 C2.34 8 1.68 8 1 8 C0.67 5.36 0.34 2.72 0 0 Z " fill="#090748" transform="translate(329,334)"/>
<path d="M0 0 C2.31 0.66 4.62 1.32 7 2 C7 3.32 7 4.64 7 6 C5.68 6 4.36 6 3 6 C3 5.34 3 4.68 3 4 C2.01 4 1.02 4 0 4 C0 2.68 0 1.36 0 0 Z " fill="#020A45" transform="translate(327,298)"/>
<path d="M0 0 C0.433125 0.639375 0.86625 1.27875 1.3125 1.9375 C2.91239177 4.26746003 2.91239177 4.26746003 6 5 C5.67 6.65 5.34 8.3 5 10 C2.03595495 7.19195732 -0.44499019 4.81684226 -2 1 C-1.34 0.67 -0.68 0.34 0 0 Z " fill="#2738C4" transform="translate(322,286)"/>
<path d="M0 0 C0.99 0.33 1.98 0.66 3 1 C3 1.99 3 2.98 3 4 C3.99 4 4.98 4 6 4 C6.33 6.31 6.66 8.62 7 11 C4.0444623 8.24829249 1.88436685 5.58029701 0 2 C0 1.34 0 0.68 0 0 Z " fill="#2939C0" transform="translate(304,261)"/>
<path d="M0 0 C0.33 0 0.66 0 1 0 C1.40214229 6.16618181 -0.03181664 11.17745757 -2 17 C-2.33 17 -2.66 17 -3 17 C-3 14.36 -3 11.72 -3 9 C-2.34 9 -1.68 9 -1 9 C-0.67 6.03 -0.34 3.06 0 0 Z " fill="#2F40BF" transform="translate(458,234)"/>
<path d="M0 0 C0.33 0 0.66 0 1 0 C1.06058594 0.86882812 1.12117188 1.73765625 1.18359375 2.6328125 C1.26738281 3.78523437 1.35117187 4.93765625 1.4375 6.125 C1.51871094 7.26195312 1.59992188 8.39890625 1.68359375 9.5703125 C1.97730965 12.7540478 2.43124313 15.85510907 3 19 C2.01 18.67 1.02 18.34 0 18 C0 12.06 0 6.12 0 0 Z " fill="#080C44" transform="translate(383,166)"/>
<path d="M0 0 C4.2742558 1.5830577 6.26531794 4.50568404 9 8 C8.67 8.66 8.34 9.32 8 10 C6.68 9.34 5.36 8.68 4 8 C4 6.68 4 5.36 4 4 C2.68 3.67 1.36 3.34 0 3 C0 2.01 0 1.02 0 0 Z " fill="#293BC2" transform="translate(439,173)"/>
<path d="M0 0 C2 1 2 1 2.66796875 2.92578125 C2.83941406 3.71339844 3.01085937 4.50101562 3.1875 5.3125 C3.36667969 6.09238281 3.54585937 6.87226563 3.73046875 7.67578125 C4.01067443 10.09204759 3.74132137 11.70242952 3 14 C-0.53286034 9.43672206 -0.32374517 5.50366792 0 0 Z " fill="#070C43" transform="translate(211,389)"/>
<path d="M0 0 C0.66 0 1.32 0 2 0 C2 1.65 2 3.3 2 5 C2.66 5 3.32 5 4 5 C4 8.3 4 11.6 4 15 C2.22413995 11.4482799 1.51372154 9.08232923 0.875 5.25 C0.70742187 4.26515625 0.53984375 3.2803125 0.3671875 2.265625 C0.24601563 1.51796875 0.12484375 0.7703125 0 0 Z " fill="#2A3EBA" transform="translate(165,200)"/>
<path d="M0 0 C0.33 0 0.66 0 1 0 C1.08074203 2.62561109 1.1403623 5.24875676 1.1875 7.875 C1.22520508 8.99455078 1.22520508 8.99455078 1.26367188 10.13671875 C1.29296875 12.3046875 1.29296875 12.3046875 1 16 C0.01 16.66 -0.98 17.32 -2 18 C-2 14 -2 14 -1 13 C-0.76518307 10.81707226 -0.58636677 8.62796826 -0.4375 6.4375 C-0.35371094 5.23996094 -0.26992188 4.04242188 -0.18359375 2.80859375 C-0.12300781 1.88175781 -0.06242187 0.95492187 0 0 Z " fill="#0D135C" transform="translate(379,166)"/>
<path d="M0 0 C2.83374881 3.20336822 3.5205537 5.78087253 4 10 C2.68 10 1.36 10 0 10 C-0.74926071 6.33694766 -1.2380014 3.57644848 0 0 Z " fill="#00013A" transform="translate(205,224)"/>
<path d="M0 0 C0.33 0.66 0.66 1.32 1 2 C3.31 2 5.62 2 8 2 C8 2.66 8 3.32 8 4 C3.545 4.495 3.545 4.495 -1 5 C-1.33 4.01 -1.66 3.02 -2 2 C-1.34 2 -0.68 2 0 2 C0 1.34 0 0.68 0 0 Z " fill="#1B2AD2" transform="translate(331,177)"/>
<path d="M0 0 C5.17930997 1.24303439 8.70166639 2.85487785 13 6 C12.01 6.495 12.01 6.495 11 7 C8.9911515 6.01789629 6.99212671 5.01559401 5 4 C2.26427415 3.30092586 2.26427415 3.30092586 0 3 C0 2.01 0 1.02 0 0 Z " fill="#283BC5" transform="translate(415,156)"/>
<path d="M0 0 C2.29633824 3.44450737 2.54016485 5.93812283 3 10 C3.66 10 4.32 10 5 10 C5.33 10.99 5.66 11.98 6 13 C5.34 13 4.68 13 4 13 C3.67 13.99 3.34 14.98 3 16 C2.49411853 14.08487728 1.99551609 12.16783078 1.5 10.25 C1.2215625 9.18265625 0.943125 8.1153125 0.65625 7.015625 C0 4 0 4 0 0 Z " fill="#2335B4" transform="translate(198,335)"/>
<path d="M0 0 C0.33 0.99 0.66 1.98 1 3 C-1.1875 5.0625 -1.1875 5.0625 -4 7 C-6.8125 6.75 -6.8125 6.75 -9 6 C-8.360625 5.896875 -7.72125 5.79375 -7.0625 5.6875 C-6.381875 5.460625 -5.70125 5.23375 -5 5 C-4.67 4.01 -4.34 3.02 -4 2 C-1.9375 0.8125 -1.9375 0.8125 0 0 Z " fill="#263BD0" transform="translate(405,264)"/>
<path d="M0 0 C0.33 0.66 0.66 1.32 1 2 C0.00390625 4.3828125 0.00390625 4.3828125 -1.4375 7.125 C-1.91058594 8.03507812 -2.38367188 8.94515625 -2.87109375 9.8828125 C-3.24363281 10.58148438 -3.61617188 11.28015625 -4 12 C-4.33 12 -4.66 12 -5 12 C-5 10.35 -5 8.7 -5 7 C-4.34 7 -3.68 7 -3 7 C-2.690625 6.030625 -2.38125 5.06125 -2.0625 4.0625 C-1 1 -1 1 0 0 Z " fill="#283EC3" transform="translate(454,252)"/>
<path d="M0 0 C2.1926135 4.2186994 4.36894477 8.60185899 3.625 13.4375 C3.41875 13.953125 3.2125 14.46875 3 15 C-0.16727335 9.8531808 -0.35050464 5.841744 0 0 Z " fill="#2739B4" transform="translate(201,218)"/>
<path d="M0 0 C0.33 0.99 0.66 1.98 1 3 C1.66 3 2.32 3 3 3 C3.33 5.31 3.66 7.62 4 10 C3.67 9.01 3.34 8.02 3 7 C0.49552484 5.78130071 0.49552484 5.78130071 -2 5 C-1.34 3.35 -0.68 1.7 0 0 Z " fill="#2339C0" transform="translate(197,208)"/>
<path d="M0 0 C1.38076179 3.83544942 0.85712183 7.07152497 0 11 C-1.5625 12.9375 -1.5625 12.9375 -3 14 C-2.48594831 9.03083364 -1.76615118 4.70973649 0 0 Z " fill="#253FB5" transform="translate(87,335)"/>
<path d="M0 0 C0.99 0.495 0.99 0.495 2 1 C2.73075648 3.3140622 3.40138258 5.64828869 4 8 C3.34 8 2.68 8 2 8 C2 8.66 2 9.32 2 10 C1.34 10 0.68 10 0 10 C0 6.7 0 3.4 0 0 Z " fill="#243BCE" transform="translate(322,324)"/>
<path d="M0 0 C0.99 1.32 1.98 2.64 3 4 C2.67 4.33 2.34 4.66 2 5 C1.92794489 6.68608966 1.91613932 8.37500659 1.9375 10.0625 C1.94652344 10.98160156 1.95554687 11.90070313 1.96484375 12.84765625 C1.97644531 13.55792969 1.98804688 14.26820313 2 15 C1.01 15.495 1.01 15.495 0 16 C0 10.72 0 5.44 0 0 Z " fill="#1F38D8" transform="translate(297,289)"/>
<path d="M0 0 C1.32 0 2.64 0 4 0 C4.53012738 1.28788008 5.0488329 2.58046678 5.5625 3.875 C5.99755859 4.95394531 5.99755859 4.95394531 6.44140625 6.0546875 C7 8 7 8 6 10 C4.99723227 8.52270825 3.99785546 7.04311423 3 5.5625 C2.443125 4.73878906 1.88625 3.91507813 1.3125 3.06640625 C0 1 0 1 0 0 Z " fill="#2B3AC4" transform="translate(297,251)"/>
<path d="M0 0 C0.66 0 1.32 0 2 0 C2.20496094 0.69867188 2.40992188 1.39734375 2.62109375 2.1171875 C2.89050781 3.02726563 3.15992188 3.93734375 3.4375 4.875 C3.70433594 5.77992188 3.97117187 6.68484375 4.24609375 7.6171875 C4.92613826 9.98275381 4.92613826 9.98275381 6 12 C3 11 3 11 1.3125 8.25 C0.06049331 5.14979295 -0.28970125 3.28328088 0 0 Z " fill="#030D55" transform="translate(294,244)"/>
<path d="M0 0 C2.5999298 2.51027705 4.99091227 4.9863684 7 8 C7 8.66 7 9.32 7 10 C5.35 9.67 3.7 9.34 2 9 C1.855625 8.2575 1.71125 7.515 1.5625 6.75 C1.09812508 4.47972261 0.58136431 2.24240521 0 0 Z " fill="#020630" transform="translate(320,288)"/>
<path d="M0 0 C0.66 0 1.32 0 2 0 C1.32829194 3.8063457 0.27253436 7.35206816 -1 11 C-1.33 11 -1.66 11 -2 11 C-1.125 3.375 -1.125 3.375 0 0 Z " fill="#2842C6" transform="translate(127,188)"/>
<path d="M0 0 C1.32 0 2.64 0 4 0 C4.66 1.98 5.32 3.96 6 6 C5.01 6 4.02 6 3 6 C2.01 4.02 1.02 2.04 0 0 Z " fill="#00001D" transform="translate(331,304)"/>
<path d="M0 0 C1.32 0.66 2.64 1.32 4 2 C3.42655063 4.86724686 3.1385485 5.8614515 1 8 C0.34 5.69 -0.32 3.38 -1 1 C-0.67 0.67 -0.34 0.34 0 0 Z " fill="#080C44" transform="translate(294,282)"/>
<path d="M0 0 C0.33 0 0.66 0 1 0 C1.3125 3.3125 1.3125 3.3125 1 7 C-1.5 8.9375 -1.5 8.9375 -4 10 C-2.66666667 6.66666667 -1.33333333 3.33333333 0 0 Z " fill="#2B3BC5" transform="translate(422,243)"/>
<path d="M0 0 C2.24606427 1.77444972 2.95081002 2.58352485 3.29296875 5.48046875 C3.25816406 6.37378906 3.22335937 7.26710937 3.1875 8.1875 C3.16042969 9.08855469 3.13335937 9.98960937 3.10546875 10.91796875 C3.07066406 11.60503906 3.03585937 12.29210937 3 13 C2.67 13 2.34 13 2 13 C1.66127487 11.58461283 1.32925376 10.16762037 1 8.75 C0.814375 7.96109375 0.62875 7.1721875 0.4375 6.359375 C0 4 0 4 0 0 Z " fill="#283CB9" transform="translate(422,204)"/>
<path d="M0 0 C0.33 0 0.66 0 1 0 C1.08131463 1.43655854 1.13933559 2.8744483 1.1875 4.3125 C1.23970703 5.51326172 1.23970703 5.51326172 1.29296875 6.73828125 C0.93801608 9.47851584 0.10633718 10.29171079 -2 12 C-1.85831863 10.56208484 -1.71148957 9.1246763 -1.5625 7.6875 C-1.48128906 6.88699219 -1.40007812 6.08648437 -1.31640625 5.26171875 C-1 3 -1 3 0 0 Z " fill="#2946C3" transform="translate(124,199)"/>
<path d="M0 0 C0.1953125 6.0546875 0.1953125 6.0546875 0 8 C-0.66 8.66 -1.32 9.32 -2 10 C-2.33 7.03 -2.66 4.06 -3 1 C-1 0 -1 0 0 0 Z " fill="#060E40" transform="translate(208,364)"/>
<path d="M0 0 C1.32 0 2.64 0 4 0 C4 1.32 4 2.64 4 4 C4.66 4 5.32 4 6 4 C5.67 5.32 5.34 6.64 5 8 C2.525 4.04 2.525 4.04 0 0 Z " fill="#010325" transform="translate(323,324)"/>
<path d="M0 0 C2.475 0.495 2.475 0.495 5 1 C4.67 2.32 4.34 3.64 4 5 C3.01 4.67 2.02 4.34 1 4 C0.3125 1.9375 0.3125 1.9375 0 0 Z " fill="#243CD0" transform="translate(419,198)"/>
<path d="M0 0 C3.63 0 7.26 0 11 0 C9.515 1.485 9.515 1.485 8 3 C5.15124622 2.79846293 2.74900747 1.85624823 0 1 C0 0.67 0 0.34 0 0 Z " fill="#1E32B4" transform="translate(367,179)"/>
<path d="M0 0 C2.475 0.495 2.475 0.495 5 1 C5 3.64 5 6.28 5 9 C4.731875 8.443125 4.46375 7.88625 4.1875 7.3125 C2.89877353 4.80287477 1.47073522 2.40665764 0 0 Z " fill="#01042A" transform="translate(374,149)"/>
<path d="M0 0 C2.64 0 5.28 0 8 0 C8 0.33 8 0.66 8 1 C5.36 1 2.72 1 0 1 C0 0.67 0 0.34 0 0 Z " fill="#000000" transform="translate(219,144)"/>
<path d="M0 0 C1.65 0 3.3 0 5 0 C5 0.33 5 0.66 5 1 C3.35 1 1.7 1 0 1 C0 0.67 0 0.34 0 0 Z " fill="#000000" transform="translate(201,144)"/>
</svg>
